<?xml version="1.0" standalone="no"?>
<!DOCTYPE svg PUBLIC "-//W3C//DTD SVG 20010904//EN"
 "http://www.w3.org/TR/2001/REC-SVG-20010904/DTD/svg10.dtd">
<svg version="1.0" xmlns="http://www.w3.org/2000/svg"
 width="1536.000000pt" height="1024.000000pt" viewBox="0 0 1536.000000 1024.000000"
 preserveAspectRatio="xMidYMid meet">

<g transform="translate(0.000000,1024.000000) scale(0.100000,-0.100000)"
fill="#000000" stroke="none">
<path d="M4895 8209 c-540 -44 -1052 -251 -1487 -602 -469 -377 -800 -917
-944 -1542 -50 -215 -65 -354 -71 -632 -6 -279 3 -428 38 -638 106 -637 463
-1281 943 -1704 297 -262 588 -428 960 -547 94 -30 356 -88 363 -80 2 1 -34
22 -80 45 -332 174 -668 484 -889 820 -272 414 -398 820 -415 1326 -12 388 49
775 188 1181 319 938 981 1418 1867 1356 193 -14 324 -38 472 -89 278 -94 519
-246 750 -473 l91 -90 237 228 c257 248 341 325 444 409 l68 55 -82 89 c-426
465 -1067 795 -1698 875 -140 18 -603 26 -755 13z"/>
<path d="M8421 8195 c-4 -5 -61 -131 -126 -280 -64 -148 -157 -360 -205 -470
-48 -110 -127 -290 -175 -400 -180 -413 -766 -1736 -1102 -2488 -156 -349
-312 -558 -553 -738 -192 -145 -458 -258 -695 -295 -168 -26 -435 -24 -600 5
-312 55 -618 197 -843 393 -291 255 -512 652 -603 1088 l-18 85 3 -240 c5
-315 31 -497 107 -768 231 -820 812 -1411 1544 -1570 214 -47 529 -48 765 -3
296 56 552 161 816 334 163 107 259 186 389 316 133 134 218 239 333 411 160
240 274 472 554 1134 367 870 501 1185 825 1941 349 813 444 1021 529 1153
105 162 218 286 321 352 35 22 63 42 63 45 0 10 -1322 5 -1329 -5z"/>
<path d="M10285 8189 c-267 -36 -495 -169 -653 -378 -92 -122 -144 -231 -242
-503 l-38 -106 636 -5 c544 -3 651 -6 732 -21 226 -40 376 -91 568 -191 298
-155 564 -430 722 -744 156 -313 224 -645 200 -984 -35 -486 -233 -911 -575
-1235 -226 -214 -527 -366 -850 -431 -253 -51 -297 -53 -1067 -58 -401 -3
-728 -3 -728 0 0 3 56 148 126 324 69 175 152 388 186 473 33 85 61 156 62
157 1 2 76 -44 167 -101 90 -57 165 -103 167 -101 1 1 -2 24 -7 51 -6 27 -49
330 -97 674 -48 344 -88 627 -90 628 -2 3 -980 -650 -1121 -748 l-53 -37 98
-28 c53 -15 132 -38 175 -52 92 -29 92 -1 -5 -233 -161 -379 -368 -813 -470
-981 -271 -449 -629 -798 -1042 -1015 l-121 -64 1865 3 c1678 3 1878 5 1990
20 677 91 1150 316 1591 756 462 463 745 1053 831 1731 17 136 17 602 0 730
-105 783 -502 1493 -1081 1929 -367 276 -791 456 -1236 526 -120 19 -538 28
-640 14z"/>
</g>
</svg>
